CommittedAdultery.ufo
<glyph name="exclam" format="2">
  <advance width="137"/>
  <unicode hex="0021"/>
  <outline>
    <contour>
      <point x="120" y="686" type="line"/>
      <point x="233" y="686" type="line"/>
      <point x="150" y="164" type="line"/>
      <point x="37" y="164" type="line"/>
    </contour>
    <contour>
      <point x="13" y="10" type="line"/>
      <point x="30" y="121" type="line"/>
      <point x="143" y="121" type="line"/>
      <point x="126" y="10" type="line"/>
    </contour>
  </outline>
</glyph>
<glyph name="numbersign" format="2">
  <advance width="716"/>
  <unicode hex="0023"/>
  <outline>
    <contour>
      <point x="278" y="686" type="line"/>
      <point x="391" y="686" type="line"/>
      <point x="284" y="10" type="line"/>
      <point x="171" y="10" type="line"/>
    </contour>
    <contour>
      <point x="522" y="686" type="line"/>
      <point x="635" y="686" type="line"/>
      <point x="528" y="10" type="line"/>
      <point x="415" y="10" type="line"/>
    </contour>
    <contour>
      <point x="733" y="413" type="line"/>
      <point x="102" y="413" type="line"/>
      <point x="120" y="527" type="line"/>
      <point x="751" y="527" type="line"/>
    </contour>
    <contour>
      <point x="694" y="163" type="line"/>
      <point x="63" y="163" type="line"/>
      <point x="81" y="277" type="line"/>
      <point x="712" y="277" type="line"/>
    </contour>
  </outline>
</glyph>
<glyph name="parenleft" format="2">
  <advance width="242"/>
  <unicode hex="0028"/>
  <outline>
    <contour>
      <point x="229" y="-183" type="line"/>
      <point x="51" y="-60" type="line"/>
      <point x="177" y="729" type="line"/>
      <point x="393" y="851" type="line"/>
      <point x="497" y="851" type="line"/>
      <point x="479" y="735" type="line"/>
      <point x="403" y="735" type="line"/>
      <point x="278" y="661" type="line"/>
      <point x="174" y="8" type="line"/>
      <point x="275" y="-66" type="line"/>
      <point x="352" y="-66" type="line"/>
      <point x="333" y="-183" type="line"/>
    </contour>
  </outline>
</glyph>
<glyph name="parenright" format="2">
  <advance width="318"/>
  <unicode hex="0029"/>
  <outline>
    <contour>
      <point x="177" y="851" type="line"/>
      <point x="355" y="728" type="line"/>
      <point x="229" y="-61" type="line"/>
      <point x="13" y="-183" type="line"/>
      <point x="-91" y="-183" type="line"/>
      <point x="-73" y="-67" type="line"/>
      <point x="3" y="-67" type="line"/>
      <point x="128" y="7" type="line"/>
      <point x="232" y="660" type="line"/>
      <point x="131" y="734" type="line"/>
      <point x="54" y="734" type="line"/>
      <point x="73" y="851" type="line"/>
    </contour>
  </outline>
</glyph>
<glyph name="asterisk" format="2">
  <advance width="474"/>
  <unicode hex="002A"/>
  <outline>
    <contour>
      <point x="291" y="700" type="line"/>
      <point x="392" y="700" type="line"/>
      <point x="323" y="295" type="line"/>
      <point x="222" y="295" type="line"/>
    </contour>
    <contour>
      <point x="467" y="658" type="line"/>
      <point x="531" y="572" type="line"/>
      <point x="184" y="347" type="line"/>
      <point x="108" y="430" type="line"/>
    </contour>
    <contour>
      <point x="495" y="397" type="line"/>
      <point x="417" y="333" type="line"/>
      <point x="145" y="602" type="line"/>
      <point x="224" y="664" type="line"/>
    </contour>
  </outline>
</glyph>
<glyph name="plus" format="2">
  <advance width="310"/>
  <unicode hex="002B"/>
  <outline>
    <contour>
      <point x="178" y="510" type="line"/>
      <point x="291" y="510" type="line"/>
      <point x="280" y="444" type="line"/>
      <point x="363" y="444" type="line"/>
      <point x="345" y="330" type="line"/>
      <point x="262" y="330" type="line"/>
      <point x="252" y="264" type="line"/>
      <point x="139" y="264" type="line"/>
      <point x="149" y="330" type="line"/>
      <point x="78" y="330" type="line"/>
      <point x="96" y="444" type="line"/>
      <point x="167" y="444" type="line"/>
    </contour>
  </outline>
</glyph>
<glyph name="comma" format="2">
  <advance width="181"/>
  <unicode hex="002C"/>
  <outline>
    <contour>
      <point x="13" y="10" type="line"/>
      <point x="39" y="177" type="line"/>
      <point x="152" y="177" type="line"/>
      <point x="126" y="10" type="line"/>
    </contour>
  </outline>
</glyph>
<glyph name="period" format="2">
  <advance width="168"/>
  <unicode hex="002E"/>
  <outline>
    <contour>
      <point x="53" y="177" type="line"/>
      <point x="166" y="177" type="line"/>
      <point x="149" y="69" type="line"/>
      <point x="36" y="69" type="line"/>
    </contour>
  </outline>
</glyph>
<glyph name="one" format="2">
  <advance width="407"/>
  <unicode hex="0031"/>
  <outline>
    <contour>
      <point x="272" y="569" type="line"/>
      <point x="155" y="569" type="line"/>
      <point x="174" y="686" type="line"/>
      <point x="402" y="686" type="line"/>
      <point x="295" y="10" type="line"/>
      <point x="183" y="10" type="line"/>
    </contour>
  </outline>
</glyph>
<glyph name="two" format="2">
  <advance width="423"/>
  <unicode hex="0032"/>
  <outline>
    <contour>
      <point x="13" y="10" type="line"/>
      <point x="51" y="273" type="line"/>
      <point x="381" y="523" type="line"/>
      <point x="389" y="569" type="line"/>
      <point x="215" y="569" type="line"/>
      <point x="208" y="527" type="line"/>
      <point x="95" y="527" type="line"/>
      <point x="120" y="686" type="line"/>
      <point x="519" y="686" type="line"/>
      <point x="487" y="481" type="line"/>
      <point x="159" y="223" type="line"/>
      <point x="145" y="133" type="line"/>
      <point x="319" y="133" type="line"/>
      <point x="327" y="189" type="line"/>
      <point x="440" y="189" type="line"/>
      <point x="412" y="10" type="line"/>
    </contour>
  </outline>
</glyph>
<glyph name="three" format="2">
  <advance width="423"/>
  <unicode hex="0033"/>
  <outline>
    <contour>
      <point x="350" y="328" type="line"/>
      <point x="271" y="328" type="line"/>
      <point x="203" y="279" type="line"/>
      <point x="203" y="398" type="line"/>
      <point x="381" y="523" type="line"/>
      <point x="389" y="569" type="line"/>
      <point x="215" y="569" type="line"/>
      <point x="208" y="527" type="line"/>
      <point x="95" y="527" type="line"/>
      <point x="120" y="686" type="line"/>
      <point x="519" y="686" type="line"/>
      <point x="487" y="481" type="line"/>
      <point x="408" y="425" type="line"/>
      <point x="478" y="425" type="line"/>
      <point x="428" y="113" type="line"/>
      <point x="257" y="10" type="line"/>
      <point x="13" y="10" type="line"/>
      <point x="42" y="192" type="line"/>
      <point x="155" y="192" type="line"/>
      <point x="146" y="133" type="line"/>
      <point x="233" y="133" type="line"/>
      <point x="329" y="192" type="line"/>
    </contour>
  </outline>
</glyph>
<glyph name="seven" format="2">
  <advance width="423"/>
  <unicode hex="0037"/>
  <outline>
    <contour>
      <point x="389" y="569" type="line"/>
      <point x="101" y="569" type="line"/>
      <point x="120" y="686" type="line"/>
      <point x="519" y="686" type="line"/>
      <point x="412" y="10" type="line"/>
      <point x="300" y="10" type="line"/>
    </contour>
  </outline>
</glyph>
<glyph name="nine" format="2">
  <advance width="423"/>
  <unicode hex="0039"/>
  <outline>
    <contour>
      <point x="412" y="10" type="line"/>
      <point x="13" y="10" type="line"/>
      <point x="49" y="239" type="line"/>
      <point x="161" y="239" type="line"/>
      <point x="145" y="133" type="line"/>
      <point x="318" y="133" type="line"/>
      <point x="337" y="253" type="line"/>
      <point x="76" y="405" type="line"/>
      <point x="120" y="686" type="line"/>
      <point x="519" y="686" type="line"/>
    </contour>
    <contour>
      <point x="385" y="569" type="line"/>
      <point x="215" y="569" type="line"/>
      <point x="199" y="472" type="line"/>
      <point x="356" y="383" type="line"/>
    </contour>
  </outline>
</glyph>
<glyph name="semicolon" format="2">
  <advance width="228"/>
  <unicode hex="003B"/>
  <outline>
    <contour>
      <point x="160" y="652" type="line"/>
      <point x="273" y="652" type="line"/>
      <point x="255" y="538" type="line"/>
      <point x="142" y="538" type="line"/>
    </contour>
    <contour>
      <point x="59" y="10" type="line"/>
      <point x="85" y="177" type="line"/>
      <point x="198" y="177" type="line"/>
      <point x="172" y="10" type="line"/>
    </contour>
  </outline>
</glyph>
<glyph name="question" format="2">
  <advance width="500"/>
  <unicode hex="003F"/>
  <outline>
    <contour>
      <point x="95" y="269" type="line"/>
      <point x="425" y="523" type="line"/>
      <point x="433" y="569" type="line"/>
      <point x="259" y="569" type="line"/>
      <point x="252" y="527" type="line"/>
      <point x="139" y="527" type="line"/>
      <point x="164" y="686" type="line"/>
      <point x="563" y="686" type="line"/>
      <point x="531" y="481" type="line"/>
      <point x="203" y="223" type="line"/>
      <point x="195" y="171" type="line"/>
      <point x="82" y="171" type="line"/>
    </contour>
    <contour>
      <point x="57" y="10" type="line"/>
      <point x="76" y="132" type="line"/>
      <point x="191" y="132" type="line"/>
      <point x="172" y="10" type="line"/>
    </contour>
  </outline>
</glyph>
<glyph name="L" format="2">
  <advance width="394"/>
  <unicode hex="004C"/>
  <outline>
    <contour>
      <point x="146" y="133" type="line"/>
      <point x="403" y="133" type="line"/>
      <point x="383" y="10" type="line"/>
      <point x="13" y="10" type="line"/>
      <point x="120" y="686" type="line"/>
      <point x="233" y="686" type="line"/>
    </contour>
  </outline>
</glyph>
<glyph name="M" format="2">
  <advance width="611"/>
  <unicode hex="004D"/>
  <outline>
    <contour>
      <point x="337" y="569" type="line"/>
      <point x="215" y="569" type="line"/>
      <point x="126" y="10" type="line"/>
      <point x="13" y="10" type="line"/>
      <point x="120" y="686" type="line"/>
      <point x="510" y="686" type="line"/>
      <point x="688" y="564" type="line"/>
      <point x="600" y="10" type="line"/>
      <point x="488" y="10" type="line"/>
      <point x="565" y="496" type="line"/>
      <point x="464" y="569" type="line"/>
      <point x="450" y="569" type="line"/>
      <point x="361" y="10" type="line"/>
      <point x="248" y="10" type="line"/>
    </contour>
  </outline>
</glyph>
<glyph name="O" format="2">
  <advance width="423"/>
  <unicode hex="004F"/>
  <outline>
    <contour>
      <point x="519" y="686" type="line"/>
      <point x="412" y="10" type="line"/>
      <point x="13" y="10" type="line"/>
      <point x="120" y="686" type="line"/>
    </contour>
    <contour>
      <point x="388" y="569" type="line"/>
      <point x="214" y="569" type="line"/>
      <point x="145" y="133" type="line"/>
      <point x="319" y="133" type="line"/>
    </contour>
  </outline>
</glyph>
<glyph name="P" format="2">
  <advance width="410"/>
  <unicode hex="0050"/>
  <outline>
    <contour>
      <point x="126" y="10" type="line"/>
      <point x="13" y="10" type="line"/>
      <point x="120" y="686" type="line"/>
      <point x="506" y="686" type="line"/>
      <point x="464" y="419" type="line"/>
      <point x="155" y="190" type="line"/>
    </contour>
    <contour>
      <point x="356" y="469" type="line"/>
      <point x="372" y="569" type="line"/>
      <point x="215" y="569" type="line"/>
      <point x="177" y="332" type="line"/>
    </contour>
  </outline>
</glyph>
<glyph name="S" format="2">
  <advance width="423"/>
  <unicode hex="0053"/>
  <outline>
    <contour>
      <point x="462" y="323" type="line"/>
      <point x="412" y="10" type="line"/>
      <point x="13" y="10" type="line"/>
      <point x="49" y="239" type="line"/>
      <point x="161" y="239" type="line"/>
      <point x="145" y="133" type="line"/>
      <point x="318" y="133" type="line"/>
      <point x="337" y="253" type="line"/>
      <point x="76" y="405" type="line"/>
      <point x="120" y="686" type="line"/>
      <point x="519" y="686" type="line"/>
      <point x="492" y="516" type="line"/>
      <point x="370" y="467" type="line"/>
      <point x="387" y="569" type="line"/>
      <point x="215" y="569" type="line"/>
      <point x="199" y="472" type="line"/>
    </contour>
  </outline>
</glyph>
<glyph name="V" format="2">
  <advance width="422"/>
  <unicode hex="0056"/>
  <outline>
    <contour>
      <point x="204" y="126" type="line"/>
      <point x="329" y="200" type="line"/>
      <point x="406" y="686" type="line"/>
      <point x="518" y="686" type="line"/>
      <point x="430" y="132" type="line"/>
      <point x="214" y="10" type="line"/>
      <point x="13" y="10" type="line"/>
      <point x="120" y="686" type="line"/>
      <point x="233" y="686" type="line"/>
      <point x="144" y="126" type="line"/>
    </contour>
  </outline>
</glyph>
<glyph name="W" format="2">
  <advance width="611"/>
  <unicode hex="0057"/>
  <outline>
    <contour>
      <point x="355" y="686" type="line"/>
      <point x="468" y="686" type="line"/>
      <point x="379" y="126" type="line"/>
      <point x="393" y="126" type="line"/>
      <point x="518" y="200" type="line"/>
      <point x="595" y="686" type="line"/>
      <point x="707" y="686" type="line"/>
      <point x="619" y="132" type="line"/>
      <point x="403" y="10" type="line"/>
      <point x="13" y="10" type="line"/>
      <point x="120" y="686" type="line"/>
      <point x="233" y="686" type="line"/>
      <point x="144" y="126" type="line"/>
      <point x="266" y="126" type="line"/>
    </contour>
  </outline>
</glyph>
<glyph name="Z" format="2">
  <advance width="424"/>
  <unicode hex="005A"/>
  <outline>
    <contour>
      <point x="120" y="686" type="line"/>
      <point x="519" y="686" type="line"/>
      <point x="501" y="569" type="line"/>
      <point x="175" y="133" type="line"/>
      <point x="433" y="133" type="line"/>
      <point x="412" y="10" type="line"/>
      <point x="13" y="10" type="line"/>
      <point x="32" y="132" type="line"/>
      <point x="366" y="569" type="line"/>
      <point x="102" y="569" type="line"/>
    </contour>
  </outline>
</glyph>
<glyph name="bracketleft" format="2">
  <advance width="235"/>
  <unicode hex="005B"/>
  <outline>
    <contour>
      <point x="156" y="-84" type="line"/>
      <point x="443" y="-84" type="line"/>
      <point x="424" y="-201" type="line"/>
      <point x="25" y="-201" type="line"/>
      <point x="200" y="904" type="line"/>
      <point x="599" y="904" type="line"/>
      <point x="580" y="781" type="line"/>
      <point x="293" y="781" type="line"/>
    </contour>
  </outline>
</glyph>
<glyph name="backslash" format="2">
  <advance width="500"/>
  <unicode hex="005C"/>
  <outline>
    <contour>
      <point x="115" y="686" type="line"/>
      <point x="239" y="686" type="line"/>
      <point x="480" y="10" type="line"/>
      <point x="356" y="10" type="line"/>
    </contour>
  </outline>
</glyph>
<glyph name="bracketright" format="2">
  <advance width="235"/>
  <unicode hex="005D"/>
  <outline>
    <contour>
      <point x="199" y="787" type="line"/>
      <point x="-88" y="787" type="line"/>
      <point x="-69" y="904" type="line"/>
      <point x="330" y="904" type="line"/>
      <point x="155" y="-201" type="line"/>
      <point x="-244" y="-201" type="line"/>
      <point x="-225" y="-78" type="line"/>
      <point x="62" y="-78" type="line"/>
    </contour>
  </outline>
</glyph>
<glyph name="asciicircum" format="2">
  <advance width="651"/>
  <unicode hex="005E"/>
  <outline>
    <contour>
      <point x="229" y="297" type="line"/>
      <point x="74" y="297" type="line"/>
      <point x="423" y="671" type="line"/>
      <point x="486" y="671" type="line"/>
      <point x="677" y="297" type="line"/>
      <point x="547" y="297" type="line"/>
      <point x="433" y="513" type="line"/>
    </contour>
  </outline>
</glyph>
<glyph name="underscore" format="2">
  <advance width="394"/>
  <unicode hex="005F"/>
  <outline>
    <contour>
      <point x="361" y="-163" type="line"/>
      <point x="16" y="-163" type="line"/>
      <point x="34" y="-49" type="line"/>
      <point x="379" y="-49" type="line"/>
    </contour>
  </outline>
</glyph>
<glyph name="grave" format="2">
  <advance width="343"/>
  <unicode hex="0060"/>
  <outline>
    <contour>
      <point x="247" y="833" type="line"/>
      <point x="362" y="833" type="line"/>
      <point x="435" y="726" type="line"/>
      <point x="320" y="726" type="line"/>
    </contour>
  </outline>
</glyph>
<glyph name="q" format="2">
  <advance width="451"/>
  <unicode hex="0071"/>
  <outline>
    <contour>
      <point x="547" y="686" type="line"/>
      <point x="440" y="10" type="line"/>
      <point x="303" y="10" type="line"/>
      <point x="323" y="133" type="line"/>
      <point x="347" y="133" type="line"/>
      <point x="416" y="569" type="line"/>
      <point x="214" y="569" type="line"/>
      <point x="145" y="133" type="line"/>
      <point x="166" y="133" type="line"/>
      <point x="146" y="10" type="line"/>
      <point x="13" y="10" type="line"/>
      <point x="120" y="686" type="line"/>
    </contour>
    <contour>
      <point x="276" y="-28" type="line"/>
      <point x="151" y="-106" type="line"/>
      <point x="210" y="267" type="line"/>
      <point x="334" y="335" type="line"/>
    </contour>
  </outline>
</glyph>
<glyph name="r" format="2">
  <advance width="423"/>
  <unicode hex="0072"/>
  <outline>
    <contour>
      <point x="126" y="10" type="line"/>
      <point x="13" y="10" type="line"/>
      <point x="120" y="686" type="line"/>
      <point x="519" y="686" type="line"/>
      <point x="479" y="434" type="line"/>
      <point x="400" y="378" type="line"/>
      <point x="470" y="378" type="line"/>
      <point x="412" y="10" type="line"/>
      <point x="300" y="10" type="line"/>
      <point x="343" y="281" type="line"/>
      <point x="264" y="281" type="line"/>
      <point x="157" y="205" type="line"/>
    </contour>
    <contour>
      <point x="375" y="482" type="line"/>
      <point x="389" y="569" type="line"/>
      <point x="215" y="569" type="line"/>
      <point x="179" y="347" type="line"/>
    </contour>
  </outline>
</glyph>
<glyph name="t" format="2">
  <advance width="377"/>
  <unicode hex="0074"/>
  <outline>
    <contour>
      <point x="120" y="686" type="line"/>
      <point x="473" y="686" type="line"/>
      <point x="455" y="569" type="line"/>
      <point x="337" y="569" type="line"/>
      <point x="248" y="10" type="line"/>
      <point x="135" y="10" type="line"/>
      <point x="224" y="569" type="line"/>
      <point x="102" y="569" type="line"/>
    </contour>
  </outline>
</glyph>
<glyph name="u" format="2">
  <advance width="423"/>
  <unicode hex="0075"/>
  <outline>
    <contour>
      <point x="406" y="686" type="line"/>
      <point x="519" y="686" type="line"/>
      <point x="412" y="10" type="line"/>
      <point x="13" y="10" type="line"/>
      <point x="120" y="686" type="line"/>
      <point x="232" y="686" type="line"/>
      <point x="145" y="133" type="line"/>
      <point x="319" y="133" type="line"/>
    </contour>
  </outline>
</glyph>
<glyph name="x" format="2">
  <advance width="405"/>
  <unicode hex="0078"/>
  <outline>
    <contour>
      <point x="368" y="560" type="line"/>
      <point x="388" y="686" type="line"/>
      <point x="501" y="686" type="line"/>
      <point x="474" y="512" type="line"/>
      <point x="330" y="346" type="line"/>
      <point x="421" y="181" type="line"/>
      <point x="394" y="10" type="line"/>
      <point x="281" y="10" type="line"/>
      <point x="300" y="132" type="line"/>
      <point x="240" y="242" type="line"/>
      <point x="145" y="132" type="line"/>
      <point x="126" y="10" type="line"/>
      <point x="13" y="10" type="line"/>
      <point x="40" y="181" type="line"/>
      <point x="183" y="346" type="line"/>
      <point x="93" y="512" type="line"/>
      <point x="120" y="686" type="line"/>
      <point x="233" y="686" type="line"/>
      <point x="213" y="560" type="line"/>
      <point x="273" y="450" type="line"/>
    </contour>
  </outline>
</glyph>
<glyph name="y" format="2">
  <advance width="407"/>
  <unicode hex="0079"/>
  <outline>
    <contour>
      <point x="269" y="420" type="line"/>
      <point x="358" y="474" type="line"/>
      <point x="391" y="686" type="line"/>
      <point x="503" y="686" type="line"/>
      <point x="459" y="410" type="line"/>
      <point x="308" y="314" type="line"/>
      <point x="260" y="10" type="line"/>
      <point x="146" y="10" type="line"/>
      <point x="194" y="313" type="line"/>
      <point x="76" y="410" type="line"/>
      <point x="120" y="686" type="line"/>
      <point x="232" y="686" type="line"/>
      <point x="199" y="474" type="line"/>
    </contour>
  </outline>
</glyph>
<glyph name="asciitilde" format="2">
  <advance width="591"/>
  <unicode hex="007E"/>
  <outline>
    <contour>
      <point x="650" y="379" type="line"/>
      <point x="616" y="331"/>
      <point x="523" y="273"/>
      <point x="469" y="273" type="qcurve" smooth="yes"/>
      <point x="428" y="273"/>
      <point x="374" y="301"/>
      <point x="351" y="316" type="qcurve" smooth="yes"/>
      <point x="330" y="330"/>
      <point x="286" y="353"/>
      <point x="257" y="353" type="qcurve" smooth="yes"/>
      <point x="221" y="353"/>
      <point x="162" y="320"/>
      <point x="137" y="292" type="qcurve"/>
      <point x="73" y="365" type="line"/>
      <point x="110" y="412"/>
      <point x="207" y="469"/>
      <point x="261" y="469" type="qcurve" smooth="yes"/>
      <point x="299" y="469"/>
      <point x="352" y="442"/>
      <point x="373" y="427" type="qcurve" smooth="yes"/>
      <point x="393" y="413"/>
      <point x="438" y="390"/>
      <point x="466" y="390" type="qcurve" smooth="yes"/>
      <point x="499" y="390"/>
      <point x="561" y="426"/>
      <point x="584" y="452" type="qcurve"/>
    </contour>
  </outline>
</glyph>
<glyph name="cent" format="2">
  <advance width="492"/>
  <unicode hex="00A2"/>
  <outline>
    <contour>
      <point x="536" y="569" type="line"/>
      <point x="518" y="452" type="line"/>
      <point x="210" y="452" type="line"/>
      <point x="185" y="287" type="line"/>
      <point x="493" y="287" type="line"/>
      <point x="473" y="164" type="line"/>
      <point x="52" y="164" type="line"/>
      <point x="115" y="569" type="line"/>
    </contour>
    <contour>
      <point x="343" y="793" type="line"/>
      <point x="425" y="793" type="line"/>
      <point x="285" y="-79" type="line"/>
      <point x="203" y="-79" type="line"/>
    </contour>
  </outline>
</glyph>
<glyph name="sterling" format="2">
  <advance width="534"/>
  <unicode hex="00A3"/>
  <outline>
    <contour>
      <point x="74" y="10" type="line"/>
      <point x="181" y="686" type="line"/>
      <point x="580" y="686" type="line"/>
      <point x="553" y="516" type="line"/>
      <point x="431" y="467" type="line"/>
      <point x="448" y="569" type="line"/>
      <point x="276" y="569" type="line"/>
      <point x="185" y="10" type="line"/>
    </contour>
    <contour>
      <point x="481" y="10" type="line"/>
      <point x="18" y="10" type="line"/>
      <point x="35" y="124" type="line"/>
      <point x="498" y="124" type="line"/>
    </contour>
    <contour>
      <point x="346" y="241" type="line"/>
      <point x="62" y="241" type="line"/>
      <point x="80" y="355" type="line"/>
      <point x="364" y="355" type="line"/>
    </contour>
  </outline>
</glyph>
<glyph name="yen" format="2">
  <advance width="407"/>
  <unicode hex="00A5"/>
  <outline>
    <contour>
      <point x="269" y="420" type="line"/>
      <point x="358" y="474" type="line"/>
      <point x="391" y="686" type="line"/>
      <point x="503" y="686" type="line"/>
      <point x="459" y="410" type="line"/>
      <point x="308" y="314" type="line"/>
      <point x="260" y="10" type="line"/>
      <point x="146" y="10" type="line"/>
      <point x="194" y="313" type="line"/>
      <point x="76" y="410" type="line"/>
      <point x="120" y="686" type="line"/>
      <point x="232" y="686" type="line"/>
      <point x="199" y="474" type="line"/>
    </contour>
    <contour>
      <point x="403" y="221" type="line"/>
      <point x="63" y="221" type="line"/>
      <point x="81" y="335" type="line"/>
      <point x="421" y="335" type="line"/>
    </contour>
    <contour>
      <point x="376" y="47" type="line"/>
      <point x="36" y="47" type="line"/>
      <point x="54" y="161" type="line"/>
      <point x="394" y="161" type="line"/>
    </contour>
  </outline>
</glyph>
<glyph name="section" format="2">
  <advance width="497"/>
  <unicode hex="00A7"/>
  <outline>
    <contour>
      <point x="472" y="136" type="line"/>
      <point x="422" y="-177" type="line"/>
      <point x="23" y="-177" type="line"/>
      <point x="59" y="52" type="line"/>
      <point x="171" y="52" type="line"/>
      <point x="155" y="-54" type="line"/>
      <point x="328" y="-54" type="line"/>
      <point x="347" y="66" type="line"/>
      <point x="86" y="218" type="line"/>
      <point x="130" y="499" type="line"/>
      <point x="274" y="499" type="line"/>
      <point x="144" y="575" type="line"/>
      <point x="188" y="856" type="line"/>
      <point x="587" y="856" type="line"/>
      <point x="560" y="686" type="line"/>
      <point x="438" y="637" type="line"/>
      <point x="455" y="739" type="line"/>
      <point x="283" y="739" type="line"/>
      <point x="267" y="642" type="line"/>
      <point x="530" y="493" type="line"/>
      <point x="480" y="201" type="line"/>
      <point x="341" y="201" type="line"/>
    </contour>
    <contour>
      <point x="380" y="303" type="line"/>
      <point x="394" y="382" type="line"/>
      <point x="225" y="382" type="line"/>
      <point x="224" y="376" type="line"/>
      <point x="213" y="303" type="line"/>
    </contour>
  </outline>
</glyph>
<glyph name="copyright" format="2">
  <advance width="599"/>
  <unicode hex="00A9"/>
  <outline>
    <contour>
      <point x="114" y="430" type="qcurve" smooth="yes"/>
      <point x="114" y="481"/>
      <point x="153" y="571"/>
      <point x="220" y="638"/>
      <point x="310" y="677"/>
      <point x="361" y="677" type="qcurve" smooth="yes"/>
      <point x="412" y="677"/>
      <point x="502" y="638"/>
      <point x="569" y="571"/>
      <point x="608" y="481"/>
      <point x="608" y="430" type="qcurve" smooth="yes"/>
      <point x="608" y="379"/>
      <point x="569" y="289"/>
      <point x="502" y="222"/>
      <point x="412" y="183"/>
      <point x="361" y="183" type="qcurve" smooth="yes"/>
      <point x="310" y="183"/>
      <point x="220" y="222"/>
      <point x="153" y="289"/>
      <point x="114" y="379"/>
    </contour>
    <contour>
      <point x="178" y="430" type="qcurve" smooth="yes"/>
      <point x="178" y="392"/>
      <point x="207" y="325"/>
      <point x="256" y="276"/>
      <point x="323" y="247"/>
      <point x="361" y="247" type="qcurve" smooth="yes"/>
      <point x="399" y="247"/>
      <point x="466" y="276"/>
      <point x="515" y="325"/>
      <point x="544" y="392"/>
      <point x="544" y="430" type="qcurve" smooth="yes"/>
      <point x="544" y="468"/>
      <point x="515" y="535"/>
      <point x="466" y="584"/>
      <point x="399" y="613"/>
      <point x="361" y="613" type="qcurve" smooth="yes"/>
      <point x="323" y="613"/>
      <point x="256" y="584"/>
      <point x="207" y="535"/>
      <point x="178" y="468"/>
    </contour>
    <contour>
      <point x="451" y="549" type="line"/>
      <point x="440" y="484" type="line"/>
      <point x="352" y="484" type="line"/>
      <point x="347" y="460"/>
      <point x="341" y="421"/>
      <point x="336" y="394" type="qcurve"/>
      <point x="425" y="394" type="line"/>
      <point x="413" y="328" type="line"/>
      <point x="260" y="328" type="line"/>
      <point x="298" y="549" type="line"/>
    </contour>
  </outline>
</glyph>
<glyph name="ordfeminine" format="2">
  <advance width="221"/>
  <unicode hex="00AA"/>
  <outline>
    <contour>
      <point x="226" y="481" type="line"/>
      <point x="153" y="481" type="line"/>
      <point x="138" y="387" type="line"/>
      <point x="90" y="387" type="line"/>
      <point x="136" y="673" type="line"/>
      <point x="221" y="673" type="line"/>
      <point x="296" y="622" type="line"/>
      <point x="259" y="387" type="line"/>
      <point x="211" y="387" type="line"/>
    </contour>
    <contour>
      <point x="234" y="529" type="line"/>
      <point x="244" y="592" type="line"/>
      <point x="201" y="623" type="line"/>
      <point x="176" y="623" type="line"/>
      <point x="160" y="529" type="line"/>
    </contour>
  </outline>
</glyph>
<glyph name="registered" format="2">
  <advance width="450"/>
  <unicode hex="00AE"/>
  <outline>
    <contour>
      <point x="104" y="485" type="qcurve" smooth="yes"/>
      <point x="104" y="526"/>
      <point x="135" y="599"/>
      <point x="189" y="653"/>
      <point x="260" y="685"/>
      <point x="301" y="685" type="qcurve" smooth="yes"/>
      <point x="341" y="685"/>
      <point x="413" y="653"/>
      <point x="467" y="599"/>
      <point x="498" y="526"/>
      <point x="498" y="485" type="qcurve" smooth="yes"/>
      <point x="498" y="444"/>
      <point x="467" y="372"/>
      <point x="413" y="318"/>
      <point x="341" y="287"/>
      <point x="301" y="287" type="qcurve" smooth="yes"/>
      <point x="260" y="287"/>
      <point x="189" y="318"/>
      <point x="135" y="372"/>
      <point x="104" y="444"/>
    </contour>
    <contour>
      <point x="143" y="486" type="qcurve" smooth="yes"/>
      <point x="143" y="453"/>
      <point x="168" y="396"/>
      <point x="211" y="353"/>
      <point x="268" y="328"/>
      <point x="301" y="328" type="qcurve" smooth="yes"/>
      <point x="334" y="328"/>
      <point x="391" y="353"/>
      <point x="434" y="396"/>
      <point x="459" y="453"/>
      <point x="459" y="486" type="qcurve" smooth="yes"/>
      <point x="459" y="519"/>
      <point x="434" y="576"/>
      <point x="391" y="619"/>
      <point x="334" y="644"/>
      <point x="301" y="644" type="qcurve" smooth="yes"/>
      <point x="268" y="644"/>
      <point x="211" y="619"/>
      <point x="168" y="576"/>
      <point x="143" y="519"/>
    </contour>
    <contour>
      <point x="251" y="375" type="line"/>
      <point x="213" y="375" type="line"/>
      <point x="249" y="597" type="line"/>
      <point x="378" y="597" type="line"/>
      <point x="366" y="514" type="line"/>
      <point x="340" y="496" type="line"/>
      <point x="362" y="496" type="line"/>
      <point x="343" y="375" type="line"/>
      <point x="307" y="375" type="line"/>
      <point x="321" y="464" type="line"/>
      <point x="296" y="464" type="line"/>
      <point x="261" y="439" type="line"/>
    </contour>
    <contour>
      <point x="332" y="530" type="line"/>
      <point x="336" y="559" type="line"/>
      <point x="279" y="559" type="line"/>
      <point x="268" y="485" type="line"/>
    </contour>
  </outline>
</glyph>
<glyph name="macron" format="2">
  <advance width="504"/>
  <unicode hex="00AF"/>
  <outline>
    <contour>
      <point x="466" y="727" type="line"/>
      <point x="186" y="727" type="line"/>
      <point x="204" y="841" type="line"/>
      <point x="484" y="841" type="line"/>
    </contour>
  </outline>
</glyph>
<glyph name="degree" format="2">
  <advance width="346"/>
  <unicode hex="00B0"/>
  <outline>
    <contour>
      <point x="106" y="543" type="qcurve" smooth="yes"/>
      <point x="106" y="574"/>
      <point x="130" y="630"/>
      <point x="171" y="672"/>
      <point x="226" y="696"/>
      <point x="258" y="696" type="qcurve" smooth="yes"/>
      <point x="289" y="696"/>
      <point x="345" y="672"/>
      <point x="387" y="630"/>
      <point x="411" y="574"/>
      <point x="411" y="543" type="qcurve" smooth="yes"/>
      <point x="411" y="511"/>
      <point x="387" y="456"/>
      <point x="345" y="415"/>
      <point x="289" y="391"/>
      <point x="258" y="391" type="qcurve" smooth="yes"/>
      <point x="226" y="391"/>
      <point x="171" y="415"/>
      <point x="130" y="456"/>
      <point x="106" y="511"/>
    </contour>
    <contour>
      <point x="172" y="543" type="qcurve" smooth="yes"/>
      <point x="172" y="507"/>
      <point x="222" y="457"/>
      <point x="258" y="457" type="qcurve" smooth="yes"/>
      <point x="294" y="457"/>
      <point x="345" y="507"/>
      <point x="345" y="543" type="qcurve" smooth="yes"/>
      <point x="345" y="579"/>
      <point x="294" y="630"/>
      <point x="258" y="630" type="qcurve" smooth="yes"/>
      <point x="222" y="630"/>
      <point x="172" y="579"/>
    </contour>
  </outline>
</glyph>
<glyph name="paragraph" format="2">
  <advance width="728"/>
  <unicode hex="00B6"/>
  <outline>
    <contour>
      <point x="138" y="686" type="line"/>
      <point x="806" y="686" type="line"/>
      <point x="788" y="572" type="line"/>
      <point x="697" y="572" type="line"/>
      <point x="575" y="-203" type="line"/>
      <point x="462" y="-203" type="line"/>
      <point x="584" y="572" type="line"/>
      <point x="457" y="572" type="line"/>
      <point x="335" y="-203" type="line"/>
      <point x="222" y="-203" type="line"/>
      <point x="308" y="346" type="line"/>
      <point x="82" y="346" type="line"/>
    </contour>
  </outline>
</glyph>
<glyph name="periodcentered" format="2">
  <advance width="184"/>
  <unicode hex="00B7"/>
  <outline>
    <contour>
      <point x="97" y="444" type="line"/>
      <point x="236" y="444" type="line"/>
      <point x="214" y="312" type="line"/>
      <point x="75" y="312" type="line"/>
    </contour>
  </outline>
</glyph>
<glyph name="ordmasculine" format="2">
  <advance width="229"/>
  <unicode hex="00BA"/>
  <outline>
    <contour>
      <point x="295" y="673" type="line"/>
      <point x="250" y="387" type="line"/>
      <point x="81" y="387" type="line"/>
      <point x="127" y="673" type="line"/>
    </contour>
    <contour>
      <point x="240" y="623" type="line"/>
      <point x="166" y="623" type="line"/>
      <point x="137" y="439" type="line"/>
      <point x="211" y="439" type="line"/>
    </contour>
  </outline>
</glyph>
<glyph name="questiondown" format="2">
  <advance width="500"/>
  <unicode hex="00BF"/>
  <outline>
    <contour>
      <point x="525" y="427" type="line"/>
      <point x="195" y="173" type="line"/>
      <point x="187" y="127" type="line"/>
      <point x="361" y="127" type="line"/>
      <point x="368" y="169" type="line"/>
      <point x="481" y="169" type="line"/>
      <point x="456" y="10" type="line"/>
      <point x="57" y="10" type="line"/>
      <point x="89" y="215" type="line"/>
      <point x="417" y="473" type="line"/>
      <point x="425" y="525" type="line"/>
      <point x="538" y="525" type="line"/>
    </contour>
    <contour>
      <point x="563" y="686" type="line"/>
      <point x="544" y="564" type="line"/>
      <point x="429" y="564" type="line"/>
      <point x="448" y="686" type="line"/>
    </contour>
  </outline>
</glyph>
<glyph name="AE" format="2">
  <advance width="709"/>
  <unicode hex="00C6"/>
  <outline>
    <contour>
      <point x="477" y="406" type="line"/>
      <point x="662" y="484" type="line"/>
      <point x="642" y="358" type="line"/>
      <point x="457" y="280" type="line"/>
      <point x="434" y="133" type="line"/>
      <point x="708" y="133" type="line"/>
      <point x="688" y="10" type="line"/>
      <point x="299" y="10" type="line"/>
      <point x="334" y="232" type="line"/>
      <point x="161" y="232" type="line"/>
      <point x="126" y="10" type="line"/>
      <point x="13" y="10" type="line"/>
      <point x="120" y="686" type="line"/>
      <point x="321" y="686" type="line"/>
      <point x="399" y="632" type="line"/>
      <point x="408" y="686" type="line"/>
      <point x="795" y="686" type="line"/>
      <point x="777" y="569" type="line"/>
      <point x="503" y="569" type="line"/>
    </contour>
    <contour>
      <point x="352" y="345" type="line"/>
      <point x="376" y="496" type="line"/>
      <point x="275" y="569" type="line"/>
      <point x="215" y="569" type="line"/>
      <point x="179" y="345" type="line"/>
    </contour>
  </outline>
</glyph>
<glyph name="multiply" format="2">
  <advance width="451"/>
  <unicode hex="00D7"/>
  <outline>
    <contour>
      <point x="450" y="426" type="line"/>
      <point x="163" y="181" type="line"/>
      <point x="87" y="270" type="line"/>
      <point x="374" y="523" type="line"/>
    </contour>
    <contour>
      <point x="163" y="523" type="line"/>
      <point x="450" y="270" type="line"/>
      <point x="374" y="181" type="line"/>
      <point x="87" y="426" type="line"/>
    </contour>
  </outline>
</glyph>
<glyph name="oslash" format="2">
  <advance width="423"/>
  <unicode hex="00F8"/>
  <outline>
    <contour>
      <point x="519" y="686" type="line"/>
      <point x="412" y="10" type="line"/>
      <point x="13" y="10" type="line"/>
      <point x="120" y="686" type="line"/>
    </contour>
    <contour>
      <point x="388" y="569" type="line"/>
      <point x="214" y="569" type="line"/>
      <point x="145" y="133" type="line"/>
      <point x="319" y="133" type="line"/>
    </contour>
    <contour>
      <point x="385" y="779" type="line"/>
      <point x="455" y="779" type="line"/>
      <point x="145" y="-81" type="line"/>
      <point x="75" y="-81" type="line"/>
    </contour>
  </outline>
</glyph>
<glyph name="hbar" format="2">
  <advance width="537"/>
  <unicode hex="0127"/>
  <outline>
    <contour>
      <point x="607" y="500" type="line"/>
      <point x="84" y="500" type="line"/>
      <point x="102" y="614" type="line"/>
      <point x="625" y="614" type="line"/>
    </contour>
    <contour>
      <point x="471" y="10" type="line"/>
      <point x="357" y="10" type="line"/>
      <point x="408" y="330" type="line"/>
      <point x="233" y="330" type="line"/>
      <point x="182" y="10" type="line"/>
      <point x="69" y="10" type="line"/>
      <point x="176" y="686" type="line"/>
      <point x="289" y="686" type="line"/>
      <point x="251" y="444" type="line"/>
      <point x="426" y="444" type="line"/>
      <point x="464" y="686" type="line"/>
      <point x="578" y="686" type="line"/>
    </contour>
  </outline>
</glyph>
<glyph name="Lcommaaccent" format="2">
  <advance width="394"/>
  <unicode hex="013B"/>
  <outline>
    <contour>
      <point x="96" y="-210" type="line"/>
      <point x="122" y="-43" type="line"/>
      <point x="235" y="-43" type="line"/>
      <point x="209" y="-210" type="line"/>
    </contour>
    <contour>
      <point x="146" y="133" type="line"/>
      <point x="403" y="133" type="line"/>
      <point x="383" y="10" type="line"/>
      <point x="13" y="10" type="line"/>
      <point x="120" y="686" type="line"/>
      <point x="233" y="686" type="line"/>
    </contour>
  </outline>
</glyph>
<glyph name="Ncommaaccent" format="2">
  <advance width="422"/>
  <unicode hex="0145"/>
  <outline>
    <contour>
      <point x="96" y="-210" type="line"/>
      <point x="122" y="-43" type="line"/>
      <point x="235" y="-43" type="line"/>
      <point x="209" y="-210" type="line"/>
    </contour>
    <contour>
      <point x="215" y="569" type="line"/>
      <point x="126" y="10" type="line"/>
      <point x="13" y="10" type="line"/>
      <point x="120" y="686" type="line"/>
      <point x="321" y="686" type="line"/>
      <point x="499" y="563" type="line"/>
      <point x="411" y="10" type="line"/>
      <point x="299" y="10" type="line"/>
      <point x="376" y="495" type="line"/>
      <point x="275" y="569" type="line"/>
    </contour>
  </outline>
</glyph>
<glyph name="OE" format="2">
  <advance width="696"/>
  <unicode hex="0152"/>
  <outline>
    <contour>
      <point x="475" y="406" type="line"/>
      <point x="660" y="484" type="line"/>
      <point x="640" y="358" type="line"/>
      <point x="455" y="280" type="line"/>
      <point x="432" y="133" type="line"/>
      <point x="706" y="133" type="line"/>
      <point x="686" y="10" type="line"/>
      <point x="13" y="10" type="line"/>
      <point x="120" y="686" type="line"/>
      <point x="793" y="686" type="line"/>
      <point x="775" y="569" type="line"/>
      <point x="501" y="569" type="line"/>
    </contour>
    <contour>
      <point x="145" y="133" type="line"/>
      <point x="318" y="133" type="line"/>
      <point x="387" y="569" type="line"/>
      <point x="214" y="569" type="line"/>
    </contour>
  </outline>
</glyph>
<glyph name="tcommaaccent" format="2">
  <advance width="377"/>
  <unicode hex="0163"/>
  <outline>
    <contour>
      <point x="96" y="-210" type="line"/>
      <point x="122" y="-43" type="line"/>
      <point x="235" y="-43" type="line"/>
      <point x="209" y="-210" type="line"/>
    </contour>
    <contour>
      <point x="120" y="686" type="line"/>
      <point x="473" y="686" type="line"/>
      <point x="455" y="569" type="line"/>
      <point x="337" y="569" type="line"/>
      <point x="248" y="10" type="line"/>
      <point x="135" y="10" type="line"/>
      <point x="224" y="569" type="line"/>
      <point x="102" y="569" type="line"/>
    </contour>
  </outline>
</glyph>
<glyph name="circumflex" format="2">
  <advance width="833"/>
  <unicode hex="02C6"/>
  <outline>
    <contour>
      <point x="435" y="726" type="line"/>
      <point x="320" y="726" type="line"/>
      <point x="279" y="788" type="line"/>
      <point x="237" y="728" type="line"/>
      <point x="127" y="728" type="line"/>
      <point x="202" y="833" type="line"/>
      <point x="362" y="833" type="line"/>
    </contour>
  </outline>
</glyph>
<glyph name="dotaccent" format="2">
  <advance width="833"/>
  <unicode hex="02D9"/>
  <outline>
    <contour>
      <point x="266" y="859" type="line"/>
      <point x="405" y="859" type="line"/>
      <point x="383" y="727" type="line"/>
      <point x="244" y="727" type="line"/>
    </contour>
  </outline>
</glyph>
<glyph name="ogonek" format="2">
  <advance width="396"/>
  <unicode hex="02DB"/>
  <outline>
    <contour>
      <point x="117" y="-169" type="line"/>
      <point x="114" y="-201" type="line"/>
      <point x="290" y="-201" type="line"/>
      <point x="273" y="-300" type="line"/>
      <point x="-2" y="-300" type="line"/>
      <point x="36" y="-80" type="line"/>
      <point x="174" y="-80" type="line"/>
      <point x="190" y="10" type="line"/>
      <point x="294" y="10" type="line"/>
      <point x="257" y="-169" type="line"/>
    </contour>
  </outline>
</glyph>
<glyph name="hungarumlaut" format="2">
  <advance width="686"/>
  <unicode hex="02DD"/>
  <outline>
    <contour>
      <point x="362" y="726" type="line"/>
      <point x="247" y="726" type="line"/>
      <point x="320" y="833" type="line"/>
      <point x="435" y="833" type="line"/>
    </contour>
    <contour>
      <point x="531" y="726" type="line"/>
      <point x="416" y="726" type="line"/>
      <point x="489" y="833" type="line"/>
      <point x="604" y="833" type="line"/>
    </contour>
  </outline>
</glyph>
<glyph name="acutecomb" format="2">
  <advance width="343"/>
  <unicode hex="0301"/>
  <outline>
    <contour>
      <point x="362" y="726" type="line"/>
      <point x="247" y="726" type="line"/>
      <point x="320" y="833" type="line"/>
      <point x="435" y="833" type="line"/>
    </contour>
  </outline>
</glyph>
<glyph name="tildecomb" format="2">
  <advance width="543"/>
  <unicode hex="0303"/>
  <outline>
    <contour>
      <point x="489" y="810" type="line"/>
      <point x="466" y="775"/>
      <point x="399" y="730"/>
      <point x="361" y="730" type="qcurve" smooth="yes"/>
      <point x="336" y="730"/>
      <point x="302" y="745"/>
      <point x="275" y="762"/>
      <point x="251" y="777"/>
      <point x="235" y="777" type="qcurve" smooth="yes"/>
      <point x="214" y="777"/>
      <point x="178" y="751"/>
      <point x="165" y="733" type="qcurve"/>
      <point x="106" y="798" type="line"/>
      <point x="130" y="833"/>
      <point x="199" y="877"/>
      <point x="237" y="877" type="qcurve" smooth="yes"/>
      <point x="261" y="877"/>
      <point x="294" y="863"/>
      <point x="320" y="845"/>
      <point x="344" y="831"/>
      <point x="359" y="831" type="qcurve" smooth="yes"/>
      <point x="381" y="831"/>
      <point x="416" y="856"/>
      <point x="429" y="876" type="qcurve"/>
    </contour>
  </outline>
</glyph>
<glyph name="brevecomb" format="2">
  <advance width="424"/>
  <unicode hex="0306"/>
  <outline>
    <contour>
      <point x="261" y="802" type="qcurve" smooth="yes"/>
      <point x="278" y="802"/>
      <point x="304" y="823"/>
      <point x="306" y="840" type="qcurve"/>
      <point x="401" y="840" type="line"/>
      <point x="399" y="813"/>
      <point x="376" y="765"/>
      <point x="339" y="731"/>
      <point x="289" y="711"/>
      <point x="261" y="711" type="qcurve" smooth="yes"/>
      <point x="232" y="711"/>
      <point x="183" y="731"/>
      <point x="146" y="765"/>
      <point x="124" y="813"/>
      <point x="123" y="840" type="qcurve"/>
      <point x="216" y="840" type="line"/>
      <point x="218" y="823"/>
      <point x="244" y="802"/>
    </contour>
  </outline>
</glyph>
<glyph name="dieresiscomb" format="2">
  <advance width="833"/>
  <unicode hex="0308"/>
  <outline>
    <contour>
      <point x="287" y="835" type="line"/>
      <point x="400" y="835" type="line"/>
      <point x="383" y="727" type="line"/>
      <point x="270" y="727" type="line"/>
    </contour>
    <contour>
      <point x="470" y="835" type="line"/>
      <point x="583" y="835" type="line"/>
      <point x="566" y="727" type="line"/>
      <point x="453" y="727" type="line"/>
    </contour>
  </outline>
</glyph>
<glyph name="endash" format="2">
  <advance width="475"/>
  <unicode hex="2013"/>
  <outline>
    <contour>
      <point x="482" y="318" type="line"/>
      <point x="82" y="318" type="line"/>
      <point x="100" y="432" type="line"/>
      <point x="500" y="432" type="line"/>
    </contour>
  </outline>
</glyph>
<glyph name="emdash" format="2">
  <advance width="621"/>
  <unicode hex="2014"/>
  <outline>
    <contour>
      <point x="633" y="318" type="line"/>
      <point x="82" y="318" type="line"/>
      <point x="100" y="432" type="line"/>
      <point x="651" y="432" type="line"/>
    </contour>
  </outline>
</glyph>
<glyph name="quoteleft" format="2">
  <advance width="224"/>
  <unicode hex="2018"/>
  <outline>
    <contour>
      <point x="167" y="686" type="line"/>
      <point x="280" y="686" type="line"/>
      <point x="242" y="451" type="line"/>
      <point x="129" y="451" type="line"/>
    </contour>
  </outline>
</glyph>
<glyph name="quoteright" format="2">
  <advance width="224"/>
  <unicode hex="2019"/>
  <outline>
    <contour>
      <point x="167" y="686" type="line"/>
      <point x="280" y="686" type="line"/>
      <point x="242" y="451" type="line"/>
      <point x="129" y="451" type="line"/>
    </contour>
  </outline>
</glyph>
<glyph name="quotesinglbase" format="2">
  <advance width="115"/>
  <unicode hex="201A"/>
  <outline>
    <contour>
      <point x="13" y="10" type="line"/>
      <point x="39" y="177" type="line"/>
      <point x="152" y="177" type="line"/>
      <point x="126" y="10" type="line"/>
    </contour>
  </outline>
</glyph>
<glyph name="quotedblright" format="2">
  <advance width="294"/>
  <unicode hex="201D"/>
  <outline>
    <contour>
      <point x="128" y="686" type="line"/>
      <point x="241" y="686" type="line"/>
      <point x="203" y="451" type="line"/>
      <point x="90" y="451" type="line"/>
    </contour>
    <contour>
      <point x="269" y="686" type="line"/>
      <point x="382" y="686" type="line"/>
      <point x="344" y="451" type="line"/>
      <point x="231" y="451" type="line"/>
    </contour>
  </outline>
</glyph>
<glyph name="quotedblbase" format="2">
  <advance width="310"/>
  <unicode hex="201E"/>
  <outline>
    <contour>
      <point x="26" y="10" type="line"/>
      <point x="52" y="177" type="line"/>
      <point x="165" y="177" type="line"/>
      <point x="139" y="10" type="line"/>
    </contour>
    <contour>
      <point x="175" y="10" type="line"/>
      <point x="201" y="177" type="line"/>
      <point x="314" y="177" type="line"/>
      <point x="288" y="10" type="line"/>
    </contour>
  </outline>
</glyph>
<glyph name="bullet" format="2">
  <advance width="315"/>
  <unicode hex="2022"/>
  <outline>
    <contour>
      <point x="95" y="366" type="qcurve" smooth="yes"/>
      <point x="95" y="390"/>
      <point x="113" y="433"/>
      <point x="145" y="465"/>
      <point x="188" y="484"/>
      <point x="212" y="484" type="qcurve" smooth="yes"/>
      <point x="236" y="484"/>
      <point x="279" y="465"/>
      <point x="311" y="433"/>
      <point x="330" y="390"/>
      <point x="330" y="366" type="qcurve" smooth="yes"/>
      <point x="330" y="342"/>
      <point x="311" y="299"/>
      <point x="279" y="267"/>
      <point x="236" y="249"/>
      <point x="212" y="249" type="qcurve" smooth="yes"/>
      <point x="188" y="249"/>
      <point x="145" y="267"/>
      <point x="113" y="299"/>
      <point x="95" y="342"/>
    </contour>
  </outline>
</glyph>
<glyph name="ellipsis" format="2">
  <advance width="504"/>
  <unicode hex="2026"/>
  <outline>
    <contour>
      <point x="53" y="177" type="line"/>
      <point x="166" y="177" type="line"/>
      <point x="149" y="69" type="line"/>
      <point x="36" y="69" type="line"/>
    </contour>
    <contour>
      <point x="221" y="177" type="line"/>
      <point x="334" y="177" type="line"/>
      <point x="317" y="69" type="line"/>
      <point x="204" y="69" type="line"/>
    </contour>
    <contour>
      <point x="389" y="177" type="line"/>
      <point x="502" y="177" type="line"/>
      <point x="485" y="69" type="line"/>
      <point x="372" y="69" type="line"/>
    </contour>
  </outline>
</glyph>
<glyph name="guilsinglleft" format="2">
  <advance width="407"/>
  <unicode hex="2039"/>
  <outline>
    <contour>
      <point x="412" y="174" type="line"/>
      <point x="390" y="33" type="line"/>
      <point x="69" y="298" type="line"/>
      <point x="83" y="384" type="line"/>
      <point x="488" y="649" type="line"/>
      <point x="465" y="509" type="line"/>
      <point x="210" y="341" type="line"/>
    </contour>
  </outline>
</glyph>
<glyph name="euro" format="2">
  <advance width="489"/>
  <unicode hex="20AC"/>
  <outline>
    <contour>
      <point x="454" y="569" type="line"/>
      <point x="280" y="569" type="line"/>
      <point x="211" y="133" type="line"/>
      <point x="385" y="133" type="line"/>
      <point x="397" y="213" type="line"/>
      <point x="510" y="213" type="line"/>
      <point x="478" y="10" type="line"/>
      <point x="79" y="10" type="line"/>
      <point x="186" y="686" type="line"/>
      <point x="585" y="686" type="line"/>
      <point x="554" y="494" type="line"/>
      <point x="442" y="494" type="line"/>
    </contour>
    <contour>
      <point x="360" y="406" type="line"/>
      <point x="93" y="406" type="line"/>
      <point x="111" y="520" type="line"/>
      <point x="378" y="520" type="line"/>
    </contour>
    <contour>
      <point x="327" y="220" type="line"/>
      <point x="60" y="220" type="line"/>
      <point x="78" y="334" type="line"/>
      <point x="345" y="334" type="line"/>
    </contour>
  </outline>
</glyph>
<glyph name="minus" format="2">
  <advance width="337"/>
  <unicode hex="2212"/>
  <outline>
    <contour>
      <point x="362" y="318" type="line"/>
      <point x="82" y="318" type="line"/>
      <point x="100" y="432" type="line"/>
      <point x="380" y="432" type="line"/>
    </contour>
  </outline>
</glyph>
<glyph name="Germandbls" format="2">
  <advance width="507"/>
  <outline>
    <contour>
      <point x="108" y="563" type="line"/>
      <point x="288" y="685" type="line"/>
      <point x="580" y="685" type="line"/>
      <point x="391" y="425" type="line"/>
      <point x="539" y="425" type="line"/>
      <point x="489" y="113" type="line"/>
      <point x="318" y="10" type="line"/>
      <point x="189" y="10" type="line"/>
      <point x="208" y="133" type="line"/>
      <point x="294" y="133" type="line"/>
      <point x="390" y="192" type="line"/>
      <point x="411" y="328" type="line"/>
      <point x="313" y="331" type="line"/>
      <point x="218" y="255" type="line"/>
      <point x="240" y="396" type="line"/>
      <point x="379" y="575" type="line"/>
      <point x="311" y="569" type="line"/>
      <point x="209" y="495" type="line"/>
      <point x="137" y="10" type="line"/>
      <point x="25" y="10" type="line"/>
    </contour>
  </outline>
</glyph>
<glyph name=".notdef" format="2">
  <advance width="658"/>
  <outline>
    <contour>
      <point x="112" y="738" type="line"/>
      <point x="644" y="738" type="line"/>
      <point x="644" y="-23" type="line"/>
      <point x="112" y="-23" type="line"/>
    </contour>
    <contour>
      <point x="178" y="43" type="line"/>
      <point x="578" y="43" type="line"/>
      <point x="578" y="672" type="line"/>
      <point x="178" y="672" type="line"/>
    </contour>
  </outline>
</glyph>
<glyph name="cedillacomb" format="2">
  <advance width="481"/>
  <outline>
    <contour>
      <point x="428" y="-140" type="line"/>
      <point x="401" y="-301" type="line"/>
      <point x="122" y="-301" type="line"/>
      <point x="140" y="-198" type="line"/>
      <point x="311" y="-198" type="line"/>
      <point x="154" y="-119" type="line"/>
      <point x="178" y="10" type="line"/>
      <point x="285" y="10" type="line"/>
      <point x="270" y="-63" type="line"/>
    </contour>
  </outline>
</glyph>
<glyph name="guillemetright" format="2">
  <advance width="633"/>
  <outline>
    <contour>
      <point x="111" y="508" type="line"/>
      <point x="133" y="649" type="line"/>
      <point x="454" y="384" type="line"/>
      <point x="440" y="298" type="line"/>
      <point x="35" y="33" type="line"/>
      <point x="58" y="173" type="line"/>
      <point x="313" y="341" type="line"/>
    </contour>
    <contour>
      <point x="341" y="508" type="line"/>
      <point x="363" y="649" type="line"/>
      <point x="684" y="384" type="line"/>
      <point x="670" y="298" type="line"/>
      <point x="265" y="33" type="line"/>
      <point x="288" y="173" type="line"/>
      <point x="543" y="341" type="line"/>
    </contour>
  </outline>
</glyph>
<glyph name="periodcentered.loclCAT" format="2">
  <advance width="184"/>
  <outline>
    <contour>
      <point x="97" y="444" type="line"/>
      <point x="236" y="444" type="line"/>
      <point x="214" y="312" type="line"/>
      <point x="75" y="312" type="line"/>
    </contour>
  </outline>
</glyph>
<glyph name="ringcomb" format="2">
  <advance width="358"/>
  <outline>
    <contour>
      <point x="121" y="826" type="qcurve" smooth="yes"/>
      <point x="121" y="847"/>
      <point x="136" y="884"/>
      <point x="163" y="912"/>
      <point x="200" y="928"/>
      <point x="221" y="928" type="qcurve" smooth="yes"/>
      <point x="242" y="928"/>
      <point x="278" y="912"/>
      <point x="305" y="884"/>
      <point x="321" y="847"/>
      <point x="321" y="826" type="qcurve" smooth="yes"/>
      <point x="321" y="805"/>
      <point x="305" y="768"/>
      <point x="278" y="741"/>
      <point x="242" y="725"/>
      <point x="221" y="725" type="qcurve" smooth="yes"/>
      <point x="200" y="725"/>
      <point x="163" y="741"/>
      <point x="136" y="768"/>
      <point x="121" y="805"/>
    </contour>
    <contour>
      <point x="184" y="826" type="qcurve" smooth="yes"/>
      <point x="184" y="811"/>
      <point x="205" y="791"/>
      <point x="219" y="791" type="qcurve" smooth="yes"/>
      <point x="235" y="791"/>
      <point x="255" y="811"/>
      <point x="255" y="826" type="qcurve" smooth="yes"/>
      <point x="255" y="841"/>
      <point x="235" y="861"/>
      <point x="219" y="861" type="qcurve" smooth="yes"/>
      <point x="205" y="861"/>
      <point x="184" y="841"/>
    </contour>
  </outline>
</glyph>
